<?xml version="1.0" standalone="no"?>
<!DOCTYPE svg PUBLIC "-//W3C//DTD SVG 20010904//EN"
 "http://www.w3.org/TR/2001/REC-SVG-20010904/DTD/svg10.dtd">
<svg version="1.0" xmlns="http://www.w3.org/2000/svg"
 width="1024.000000pt" height="1024.000000pt" viewBox="0 0 1024.000000 1024.000000"
 preserveAspectRatio="xMidYMid meet">

<g transform="translate(0.000000,1024.000000) scale(0.100000,-0.100000)"
fill="#000000" stroke="none">
<path d="M0 5120 l0 -5120 5120 0 5120 0 0 5120 0 5120 -5120 0 -5120 0 0
-5120z m5575 3851 c523 -70 955 -221 1435 -499 410 -238 814 -598 1095 -976
377 -507 608 -1031 700 -1588 l6 -38 -490 0 -489 0 -32 103 c-93 299 -214 536
-419 817 -461 633 -1171 1063 -1909 1155 -656 82 -1302 -62 -1880 -419 -410
-254 -798 -680 -1026 -1125 -67 -131 -107 -228 -161 -396 l-43 -130 -486 -3
-486 -2 0 26 c0 45 47 262 85 394 177 608 523 1176 1002 1640 234 226 415 367
667 518 525 316 1090 497 1701 546 134 10 585 -4 730 -23z m-227 -1611 c500
-45 958 -232 1259 -514 253 -236 421 -572 440 -878 l6 -98 -1953 0 -1953 0 6
108 c25 462 344 894 845 1146 225 113 555 205 842 235 116 12 383 12 508 1z
m-2426 -1037 c26 -23 23 -44 -18 -104 -75 -112 -151 -289 -174 -410 -14 -70
-39 -97 -78 -83 -22 8 -28 16 -30 47 -8 98 104 385 203 520 38 51 65 59 97 30z
m4454 -45 c98 -152 136 -237 179 -407 26 -104 25 -125 -7 -142 -46 -24 -66 3
-97 127 -26 110 -71 213 -143 334 -58 98 -60 101 -44 125 11 17 26 25 44 25
23 0 35 -11 68 -62z m-5276 -758 c0 -19 -7 -20 -110 -20 -103 0 -110 1 -110
20 0 19 7 20 110 20 103 0 110 -1 110 -20z m6228 3 c-3 -16 -20 -18 -161 -21
-152 -2 -157 -2 -157 18 0 19 6 20 161 20 147 0 160 -1 157 -17z m-1203 -51
c65 -38 82 -133 32 -180 l-23 -22 -2044 0 -2045 0 -17 22 c-40 54 -27 136 28
173 27 18 53 20 329 25 165 3 1067 4 2005 2 1596 -3 1707 -4 1735 -20z m-5258
-132 c61 -37 65 -50 66 -257 1 -155 -2 -195 -15 -225 -31 -69 -118 -98 -193
-63 -36 18 -53 48 -62 111 l-6 44 46 0 c43 0 45 -1 51 -35 8 -40 19 -49 51
-41 28 7 45 51 45 119 0 41 -3 48 -16 43 -61 -23 -119 -8 -150 40 -23 35 -26
173 -5 223 25 59 124 81 188 41z m363 5 c55 -28 60 -53 60 -275 0 -223 -5
-247 -62 -276 -22 -11 -48 -15 -85 -12 -75 6 -105 36 -111 112 l-4 56 39 0
c37 0 40 -2 49 -37 7 -29 15 -39 32 -41 13 -2 29 1 36 7 17 15 26 68 19 120
-5 36 -7 39 -25 30 -32 -17 -95 -1 -122 32 -39 46 -47 181 -14 242 26 51 128
73 188 42z m5865 1 c55 -23 85 -103 65 -177 -7 -24 -40 -84 -75 -134 -57 -83
-95 -146 -95 -160 0 -3 36 -5 79 -5 l79 0 4 -34 c2 -19 2 -39 0 -45 -2 -7 -46
-11 -127 -11 -140 0 -140 1 -129 79 8 58 19 79 110 212 55 81 74 118 74 142 0
40 -15 57 -52 57 -25 0 -29 -5 -40 -45 -12 -43 -14 -45 -50 -45 l-38 0 0 48
c0 61 17 93 60 114 42 22 89 23 135 4z m365 -1 c54 -28 60 -53 60 -274 0 -110
-4 -211 -10 -225 -32 -86 -208 -86 -240 0 -6 14 -10 43 -10 65 l0 40 43 -3
c39 -3 42 -5 45 -35 3 -26 9 -34 28 -39 16 -4 31 -1 40 8 19 18 28 77 20 121
l-6 34 -55 -5 c-49 -4 -57 -2 -83 25 -69 69 -48 261 32 293 34 14 105 11 136
-5z m-5768 -242 c36 -33 17 -96 -34 -108 -53 -13 -90 64 -51 107 20 22 61 23
85 1z m4897 -9 c12 -15 21 -33 21 -41 0 -20 -46 -63 -68 -63 -27 0 -62 37 -62
67 0 61 71 85 109 37z m-1745 -43 c3 -5 -45 -57 -108 -115 l-114 -106 -1258 2
c-1176 3 -1261 4 -1291 20 -45 25 -63 56 -63 108 1 47 12 69 45 88 25 14 2781
17 2789 3z m1317 -30 c11 -13 19 -39 19 -61 0 -51 -27 -74 -88 -74 -26 -1
-189 0 -363 2 l-316 2 -87 76 c-47 42 -84 79 -82 82 2 4 205 5 451 2 l447 -5
19 -24z m-2400 -420 c36 -11 104 -45 150 -76 144 -92 222 -93 359 -3 36 23 94
53 130 67 62 24 77 25 302 29 200 3 247 1 295 -13 85 -25 140 -56 218 -124
155 -136 305 -163 464 -82 50 26 141 109 187 172 l37 51 99 -4 100 -3 -6 -35
c-3 -19 -26 -77 -51 -128 -104 -210 -273 -323 -505 -338 -177 -12 -330 43
-466 167 -43 39 -95 79 -116 90 -80 41 -292 48 -414 14 -28 -8 -94 -43 -146
-78 -124 -83 -189 -102 -325 -94 -123 6 -170 23 -289 103 -52 35 -112 68 -132
73 -63 17 -223 23 -310 12 -110 -14 -152 -34 -247 -120 -138 -124 -290 -179
-460 -167 -153 11 -254 52 -352 141 -88 79 -175 226 -198 333 l-7 32 100 0
100 0 36 -49 c50 -68 143 -151 199 -179 63 -31 151 -44 217 -32 68 13 132 48
209 116 152 132 230 153 571 148 155 -2 196 -6 251 -23z m-2641 -6 c0 -13 -26
-15 -170 -15 -144 0 -170 2 -170 15 0 13 26 15 170 15 144 0 170 -2 170 -15z
m6260 0 c0 -13 -29 -15 -205 -15 -176 0 -205 2 -205 15 0 13 29 15 205 15 176
0 205 -2 205 -15z m-5677 -219 c4 -6 14 -36 22 -66 25 -88 74 -209 119 -290
58 -105 58 -105 35 -134 -41 -53 -75 -26 -147 120 -45 90 -106 257 -116 320
-7 37 -4 44 15 58 24 16 58 13 72 -8z m4867 -1 c8 -10 10 -29 6 -58 -12 -74
-73 -242 -120 -329 -68 -126 -96 -149 -138 -111 -26 23 -22 52 14 109 41 64
104 209 127 294 27 95 36 110 70 110 16 0 34 -7 41 -15z m-5213 -177 c5 -7 24
-51 43 -98 44 -114 155 -336 219 -440 122 -196 306 -413 523 -616 324 -303
804 -564 1234 -673 288 -73 505 -96 803 -88 310 9 531 47 818 143 442 146 802
368 1138 700 300 297 504 596 644 943 27 68 53 126 58 130 4 3 225 5 490 3
l482 -3 -5 -32 c-17 -91 -71 -297 -109 -409 -57 -167 -101 -270 -200 -463
-187 -368 -399 -650 -732 -975 -299 -292 -562 -482 -938 -676 -210 -109 -362
-173 -575 -244 -399 -133 -720 -184 -1160 -184 -438 0 -763 55 -1190 203 -750
259 -1414 745 -1894 1386 -223 297 -381 596 -501 945 -48 140 -115 388 -115
427 l0 23 473 3 c259 1 475 3 478 5 4 1 11 -4 16 -10z m4673 -347 c0 -91 -90
-293 -171 -384 -93 -105 -218 -185 -339 -220 -127 -36 -200 -38 -1475 -35
-1248 4 -1250 4 -1332 26 -258 68 -445 246 -521 492 -11 36 -23 84 -27 108
l-7 43 1936 -2 1936 -1 0 -27z m-2415 -981 c17 -39 20 -40 67 -40 56 0 60 -10
17 -53 -29 -28 -31 -34 -25 -79 8 -55 1 -59 -51 -27 -34 22 -35 22 -71 3 -21
-10 -41 -20 -46 -23 -5 -2 -6 18 -2 46 6 46 4 51 -29 83 -19 18 -32 37 -29 42
3 4 25 8 50 8 43 0 45 2 66 45 12 24 24 42 28 40 4 -2 15 -22 25 -45z m507
-12 c9 -25 15 -28 59 -28 57 0 61 -10 18 -53 -29 -28 -31 -34 -25 -79 4 -26 4
-48 1 -48 -3 0 -24 9 -45 20 l-40 20 -40 -20 c-56 -28 -59 -26 -48 26 10 44 9
47 -21 78 -43 44 -40 56 14 56 44 0 46 1 67 46 21 41 24 44 36 27 8 -10 18
-30 24 -45z m489 12 c21 -37 26 -40 66 -40 52 0 55 -14 14 -54 -27 -26 -29
-33 -24 -77 3 -27 2 -49 -3 -49 -5 0 -25 10 -44 21 l-34 21 -43 -23 c-23 -13
-45 -20 -49 -16 -4 3 -2 25 4 47 10 40 9 42 -24 72 -48 44 -45 58 14 58 47 0
50 1 67 40 10 22 22 40 26 40 4 0 18 -18 30 -40z"/>
<path d="M5220 8697 c-127 -36 -199 -130 -199 -262 -1 -224 272 -342 466 -202
l44 31 -47 47 -46 47 -41 -24 c-78 -45 -176 -24 -212 45 -30 59 -9 136 47 171
44 28 113 23 166 -12 l38 -26 26 23 c15 13 37 30 50 39 l22 16 -33 34 c-64 66
-190 99 -281 73z"/>
<path d="M5917 8563 c-8 -26 -40 -128 -71 -226 -31 -97 -56 -185 -56 -195 0
-12 16 -22 61 -35 33 -10 64 -15 68 -13 4 3 16 32 26 66 10 33 24 60 30 60 31
0 56 -36 66 -96 6 -33 14 -64 17 -70 9 -12 152 -57 159 -50 3 3 -4 44 -16 90
-26 105 -26 106 -1 106 35 0 77 28 101 67 46 75 21 181 -57 236 -38 26 -209
90 -279 103 -32 6 -33 5 -48 -43z m207 -147 c44 -18 57 -57 31 -86 -10 -11
-28 -20 -41 -20 -18 0 -80 22 -103 37 -2 1 2 23 9 49 12 43 15 46 41 40 15 -3
44 -12 63 -20z"/>
<path d="M4013 8526 c-125 -40 -193 -66 -193 -75 0 -25 35 -111 45 -111 5 0
32 7 59 15 27 8 54 15 61 15 6 0 35 -74 64 -164 30 -90 57 -170 61 -176 6 -9
24 -7 74 10 60 20 66 24 60 43 -4 12 -29 91 -55 175 -27 84 -49 157 -49 161 0
4 27 16 61 26 34 10 63 25 66 32 9 22 -29 113 -46 112 -9 -1 -103 -29 -208
-63z"/>
<path d="M6617 8080 c-125 -83 -226 -154 -223 -158 2 -4 30 -25 60 -46 l56
-38 34 26 c19 14 37 26 40 26 7 0 113 -68 137 -87 13 -11 15 -23 9 -53 l-7
-40 64 -35 c35 -19 67 -35 72 -35 7 0 32 121 107 501 5 24 -1 30 -49 58 -30
17 -58 31 -63 31 -5 0 -112 -68 -237 -150z m172 -109 c-7 -34 -15 -61 -19 -61
-3 0 -20 13 -39 29 l-34 28 49 36 c27 20 50 34 52 32 2 -1 -2 -30 -9 -64z"/>
<path d="M3293 8189 c-29 -17 -53 -36 -53 -43 0 -16 59 -474 66 -512 l6 -31
69 40 69 40 -6 46 c-5 45 -5 46 33 68 21 12 56 33 79 47 l41 25 37 -25 37 -26
66 43 66 43 -34 28 c-49 42 -405 288 -415 288 -5 0 -33 -14 -61 -31z m166
-207 l44 -38 -41 -26 -40 -27 -11 50 c-20 93 -16 96 48 41z"/>
<path d="M7208 7678 l-176 -183 51 -53 51 -52 68 67 67 67 68 -61 69 -61 41
39 42 38 -67 65 -67 65 28 28 27 28 84 -84 84 -84 46 39 c25 21 46 41 46 44 0
5 -103 107 -230 228 l-56 52 -176 -182z"/>
<path d="M2641 7701 c-72 -76 -131 -143 -131 -148 0 -5 76 -84 169 -177 117
-116 174 -166 183 -160 7 4 75 66 151 138 l138 129 -43 44 c-23 24 -45 43 -48
43 -3 0 -45 -39 -95 -85 l-89 -84 -23 21 -24 22 77 77 76 76 -43 37 c-23 20
-45 36 -49 36 -3 0 -37 -31 -75 -70 -65 -65 -70 -69 -87 -53 -10 9 -18 21 -18
28 0 6 36 50 80 96 l79 84 -41 42 c-23 24 -45 43 -49 43 -4 0 -66 -62 -138
-139z"/>
<path d="M7768 7352 c-26 -21 -47 -41 -48 -46 0 -4 16 -30 35 -56 19 -26 35
-52 35 -56 0 -5 -17 -20 -38 -34 -54 -35 -235 -162 -246 -171 -8 -7 70 -119
84 -119 4 0 67 43 141 95 73 52 137 95 141 95 4 0 31 -31 59 -70 28 -38 55
-70 60 -70 9 0 61 35 93 61 8 7 -230 375 -257 397 -8 7 -26 -1 -59 -26z"/>
<path d="M2211 7222 c-17 -27 -31 -52 -31 -56 0 -3 23 -56 50 -116 28 -60 50
-112 50 -115 0 -3 -21 -5 -47 -5 -27 0 -85 -3 -129 -6 l-81 -7 -34 -68 c-18
-38 -31 -70 -28 -72 5 -3 409 -197 425 -204 12 -4 87 114 80 126 -3 4 -53 25
-113 46 l-108 40 118 9 c64 5 117 12 117 16 0 3 -18 50 -39 104 l-40 96 96
-65 c52 -36 99 -65 104 -65 4 0 14 10 20 23 7 12 25 38 40 58 22 28 26 39 16
47 -16 13 -128 81 -262 160 -60 35 -124 72 -141 83 l-32 19 -31 -48z"/>
<path d="M8052 6528 c-18 -18 -15 -37 19 -108 17 -36 46 -103 64 -150 18 -47
40 -89 48 -94 19 -12 63 0 71 19 9 25 -74 242 -118 307 -23 35 -62 48 -84 26z"/>
<path d="M2031 6443 c-24 -21 -91 -190 -91 -231 0 -36 22 -56 53 -48 19 4 32
28 70 125 47 121 50 144 16 161 -23 13 -23 13 -48 -7z"/>
<path d="M5057 7112 c-14 -15 -17 -41 -17 -135 0 -125 6 -141 57 -153 22 -6
32 -1 56 26 28 32 29 34 25 135 -2 84 -6 107 -22 124 -24 26 -77 28 -99 3z"/>
<path d="M4450 7036 c-168 -70 -199 -106 -149 -170 27 -34 55 -33 127 3 31 16
76 35 100 42 45 13 82 49 82 79 0 10 -9 29 -21 44 -26 33 -64 34 -139 2z"/>
<path d="M5610 7040 c-45 -45 -11 -105 75 -135 28 -10 70 -28 94 -41 51 -28
78 -30 109 -8 15 10 22 25 22 49 0 43 -36 73 -143 121 -89 39 -129 42 -157 14z"/>
<path d="M5970 7038 c0 -8 41 -48 92 -89 142 -114 213 -184 287 -283 114 -152
203 -354 218 -497 l6 -59 -327 0 c-207 0 -334 -4 -347 -10 -26 -14 -24 -55 3
-74 20 -14 84 -16 500 -16 l478 0 0 23 c0 12 -9 58 -19 102 -84 348 -378 691
-736 861 -107 51 -155 64 -155 42z"/>
<path d="M3849 6602 c-89 -92 -106 -123 -89 -166 11 -29 52 -50 81 -41 10 3
40 34 68 68 27 34 65 78 85 96 44 43 48 80 10 110 -45 35 -63 27 -155 -67z"/>
<path d="M6179 6672 c-41 -34 -31 -73 37 -144 33 -35 71 -77 84 -95 35 -45 72
-52 104 -19 48 47 31 88 -81 205 -74 77 -101 87 -144 53z"/>
<path d="M4635 6634 c-82 -42 -169 -108 -184 -138 -12 -25 -11 -33 3 -62 23
-50 57 -54 109 -15 23 17 64 44 90 59 103 57 112 65 115 104 2 29 -2 40 -24
57 -34 27 -49 26 -109 -5z"/>
<path d="M5452 6644 c-22 -15 -29 -54 -16 -89 4 -9 37 -31 74 -50 37 -19 89
-53 115 -75 39 -33 53 -40 74 -35 34 8 61 40 61 73 0 36 -77 108 -166 155 -79
41 -108 45 -142 21z"/>
<path d="M5057 6392 c-14 -15 -17 -41 -17 -139 0 -134 8 -153 67 -153 54 0 64
24 66 153 2 100 0 117 -17 136 -24 26 -77 28 -99 3z"/>
<path d="M1759 5243 c-5 -15 -9 -45 -7 -67 2 -32 9 -44 30 -56 25 -13 29 -13
45 3 22 22 25 106 4 130 -22 27 -60 21 -72 -10z"/>
<path d="M2120 5244 c-26 -67 0 -138 48 -132 26 3 27 6 30 66 3 71 -7 92 -44
92 -17 0 -28 -8 -34 -26z"/>
<path d="M8350 5251 c-17 -33 -12 -99 10 -121 21 -21 29 -23 54 -14 20 8 23
123 4 142 -18 18 -56 14 -68 -7z"/>
<path d="M1952 3888 c-24 -24 -11 -73 57 -212 72 -146 163 -292 193 -310 13
-8 23 -8 35 0 41 26 39 38 -31 152 -37 61 -94 168 -128 239 -33 70 -65 131
-72 135 -17 11 -41 9 -54 -4z"/>
<path d="M8166 3878 c-9 -12 -16 -27 -16 -34 0 -20 -96 -207 -164 -322 -37
-61 -66 -119 -64 -129 5 -26 52 -40 74 -22 32 26 116 163 181 296 68 140 84
193 63 218 -18 22 -57 18 -74 -7z"/>
<path d="M7531 3159 c-121 -23 -213 -127 -214 -244 -1 -97 54 -151 144 -143
47 5 93 28 177 91 48 35 75 30 80 -15 5 -38 -60 -92 -103 -85 -29 5 -34 1 -69
-55 -45 -71 -41 -78 49 -78 117 0 228 84 261 196 32 111 -31 204 -139 204 -57
0 -104 -22 -169 -79 -25 -23 -52 -41 -60 -41 -17 0 -38 20 -38 37 0 25 62 83
101 93 l39 11 0 54 c0 30 -3 56 -7 58 -5 2 -28 0 -52 -4z"/>
<path d="M2619 3073 c-41 -43 -118 -123 -172 -179 l-98 -101 68 -65 c120 -115
184 -167 228 -184 38 -14 49 -15 87 -3 50 16 88 65 88 114 0 28 4 33 40 44 80
24 114 125 71 209 -11 20 -59 75 -108 122 -142 138 -118 133 -204 43z m155
-155 c38 -44 44 -66 24 -86 -24 -24 -51 -12 -107 50 l-23 27 25 25 c15 14 30
26 36 26 5 0 26 -19 45 -42z m-100 -219 c-26 -25 -41 -19 -93 35 l-35 36 24
25 24 26 50 -51 51 -50 -21 -21z"/>
<path d="M3235 2475 c-101 -146 -124 -194 -125 -253 -1 -160 194 -278 349
-212 29 13 66 39 84 60 29 35 149 228 162 263 4 9 -10 25 -43 46 -27 17 -53
31 -58 31 -5 0 -44 -55 -87 -121 -81 -124 -118 -159 -170 -159 -38 0 -87 49
-87 86 0 17 30 73 80 151 45 68 83 130 86 137 4 11 -18 33 -93 88 -7 6 -39
-31 -98 -117z"/>
<path d="M6850 2551 c-14 -5 -41 -16 -60 -26 -36 -18 -209 -123 -223 -136 -10
-8 -11 -5 111 -194 108 -167 154 -235 159 -235 3 0 113 68 121 75 2 2 -13 28
-32 58 -20 31 -36 60 -36 65 0 24 52 21 129 -8 l81 -29 52 42 c28 23 53 47 55
53 2 7 -34 25 -87 44 -86 31 -102 42 -80 55 5 3 14 22 19 43 33 116 -90 229
-209 193z m52 -158 c10 -9 18 -24 18 -33 0 -22 -74 -90 -98 -90 -18 0 -69 76
-58 87 3 3 20 16 38 29 39 27 75 30 100 7z"/>
<path d="M6080 2179 c-52 -17 -126 -40 -165 -51 -38 -12 -73 -24 -77 -27 -4
-4 20 -94 52 -201 33 -107 65 -215 71 -239 12 -43 12 -43 48 -37 20 3 106 28
191 55 171 54 164 47 129 127 -15 36 -23 45 -37 39 -65 -26 -202 -68 -207 -64
-2 3 -7 19 -11 35 -6 30 -6 30 78 53 46 13 87 27 92 32 9 8 -21 109 -33 109
-4 0 -44 -13 -89 -30 -79 -29 -82 -29 -92 -10 -24 45 -15 56 78 83 49 15 96
27 105 27 10 0 17 6 17 13 0 20 -37 111 -46 114 -5 1 -52 -12 -104 -28z"/>
<path d="M4020 1998 c-61 -189 -91 -290 -87 -294 1 -1 33 -11 70 -22 l68 -20
8 21 c4 12 14 43 22 70 14 51 16 52 52 38 21 -8 28 -22 42 -90 l18 -81 41 -11
c23 -6 58 -15 79 -21 20 -6 40 -9 43 -6 3 3 -5 43 -16 89 -12 46 -22 88 -23
93 -1 5 12 13 29 17 40 11 90 67 105 119 21 70 -21 159 -93 196 -25 13 -276
94 -291 94 -3 0 -33 -87 -67 -192z m233 8 c63 -26 84 -67 51 -100 -20 -20 -53
-20 -105 0 -35 14 -40 20 -35 40 20 77 31 85 89 60z"/>
<path d="M5055 2014 c-55 -19 -109 -66 -143 -122 -23 -41 -27 -58 -27 -127 0
-69 4 -86 27 -127 77 -129 242 -177 383 -109 104 50 145 111 145 220 l0 74
-142 -7 c-79 -4 -145 -9 -147 -11 -2 -2 0 -29 4 -60 l6 -55 60 0 c33 0 59 -4
59 -10 0 -21 -65 -50 -114 -50 -43 0 -53 4 -86 38 -49 49 -60 97 -34 154 34
76 125 101 204 57 l37 -21 52 38 52 39 -38 32 c-21 18 -58 39 -82 48 -55 19
-162 18 -216 -1z"/>
<path d="M5982 3698 c-17 -17 -15 -53 4 -68 21 -18 766 -15 795 3 21 13 25 47
7 65 -17 17 -789 17 -806 0z"/>
<path d="M4685 3446 c-19 -28 -12 -50 21 -65 33 -15 1636 -15 1739 -1 69 10
175 56 183 79 3 8 -251 11 -962 11 l-966 0 -15 -24z"/>
</g>
</svg>
